<svg width="186" height="114" viewBox="0 0 186 114" fill="none" xmlns="http://www.w3.org/2000/svg">
<path d="M9.8 2.49607C8.17866 3.26406 5.96 5.22673 4.936 6.84806C3.05866 9.57873 2.97333 10.5174 2.97333 25.3654C2.97333 39.0187 2.80266 40.9814 1.69333 40.5547C0.242664 39.9574 0.327998 40.2987 3.656 47.8934L5.27733 51.7334L6.984 47.7227C9.88533 41.2374 10.2267 39.8721 8.60533 40.4694C7.41066 40.9814 7.24 39.5307 7.24 26.4747C7.24 10.1761 7.83733 7.78673 12.4453 6.1654C16.3707 4.80006 169.715 4.80006 173.64 6.1654C177.48 7.53073 178.76 11.1147 178.76 20.5014C178.76 26.1334 179.016 28.1814 179.955 28.5227C182.344 29.4614 183.027 27.0721 183.027 18.3681C183.027 10.8587 182.771 9.40807 181.064 6.84806C176.883 0.618732 182.515 0.960064 93 0.960064C18.3333 0.960064 12.616 1.0454 9.8 2.49607Z" fill="white"/>
<path d="M81.9067 21.7813C76.616 24.256 72.776 28.2667 70.216 33.8133C68.5947 37.312 68.2533 39.5307 68.2533 46.1867C68.2533 53.3547 68.5093 54.8907 70.6427 59.1573C74.9093 67.776 82.8453 72.64 92.744 72.64C97.608 72.64 101.96 71.0187 104.861 68.1173C107.08 65.8987 107.933 66.496 107.933 70.1653C107.933 71.5307 108.531 71.7867 111.347 71.7867H114.76V58.1333V44.48H104.093H93.4267V48.32V52.16H99.4C106.056 52.16 106.312 52.5013 104.179 57.7067C101.789 63.3387 93.9387 65.728 87.112 62.912C80.6267 60.1813 76.9573 50.7947 78.8347 41.92C80.2 35.1787 82.504 31.8507 87.1973 29.8027C93.3413 27.072 99.5707 28.864 102.643 34.3253C104.008 36.6293 104.52 36.8 109.043 36.8C113.565 36.8 113.907 36.7147 113.907 34.752C113.907 31.0827 108.787 24.6827 103.752 22.1227C97.608 18.88 88.3067 18.7093 81.9067 21.7813Z" fill="white"/>
<path d="M22.6 46.1867V71.7867H42.2267H61.8533V67.0934V62.4001H47.7733H33.6933V56.0001V49.6001H46.0667H58.44V45.3334V41.0667H46.0667H33.6933V35.5201V29.9734H47.3467H61V25.2801V20.5867H41.8H22.6V46.1867Z" fill="white"/>
<path d="M125 46.1867V71.7867H130.547H136.093V61.9734V52.1601H143.773C150.771 52.1601 151.709 52.3307 153.587 54.2081C154.696 55.3174 155.805 57.5361 156.061 59.0721C156.317 60.6934 156.744 64.1067 157.171 66.6667L157.853 71.3601L163.229 71.6161C166.557 71.7867 168.435 71.5307 168.179 71.0187C167.923 70.5921 167.325 66.7521 166.899 62.4854C165.96 54.0374 164.424 50.2827 161.011 48.7467L158.877 47.8081L161.523 46.1867C165.533 43.7121 167.069 40.0427 166.643 33.7281C166.387 28.9494 165.96 27.9254 163.4 25.2801C161.779 23.6587 159.133 21.8667 157.427 21.4401C155.805 21.0134 147.784 20.5867 139.763 20.5867H125V46.1867ZM154.44 31.2534C157.341 34.0694 157.341 38.6774 154.44 41.4934C152.563 43.4561 151.795 43.6267 143.773 43.6267H135.24V36.3734V29.1201H143.773C151.795 29.1201 152.563 29.2907 154.44 31.2534Z" fill="white"/>
<path d="M178.163 47.7228C175.773 53.1841 175.688 53.6108 177.224 53.1841C178.845 52.7574 178.845 53.2694 178.589 66.9228C178.333 80.4908 178.248 81.0881 176.285 83.2214L174.237 85.4401L152.392 85.6108L130.547 85.8668L130.291 87.7441L130.035 89.7068H152.477C183.539 89.7068 183.027 90.0481 183.027 66.5814C183.027 54.7201 183.197 52.9281 184.307 53.3548C185.928 53.9521 186.013 54.1228 183.197 47.5521L180.723 41.8348L178.163 47.7228Z" fill="white"/>
<path d="M3.57066 62.9121C3.22933 63.2535 2.97333 67.3495 2.97333 71.9575C2.97333 81.8561 4.168 85.5255 8.264 88.0001C10.9093 89.6215 12.5307 89.7068 33.096 89.7068H55.112L54.856 87.7441L54.6 85.8668L33.1813 85.6108L11.7627 85.4401L9.71466 83.2215C7.92266 81.2588 7.58133 80.0641 7.24 71.9575C6.89866 64.6188 6.55733 62.8268 5.53333 62.5708C4.76533 62.4855 3.912 62.5708 3.57066 62.9121Z" fill="white"/>
<path d="M70.472 82.8801C66.8027 83.7334 63.6453 86.1227 61.256 89.7067C58.952 93.0347 58.6107 100.032 60.488 104.469C61.9387 108.053 66.12 111.552 70.216 112.747C74.3973 113.856 111.688 113.856 115.869 112.661C120.136 111.552 124.659 107.456 125.939 103.616C127.475 98.8374 126.536 92.0961 123.805 88.5121C119.368 82.6241 118.515 82.4534 94.7067 82.2827C83.016 82.1974 72.0933 82.4534 70.472 82.8801ZM77.4693 88.0854C81.736 89.1947 84.04 92.9494 84.04 98.4961C84.04 102.08 83.6133 103.104 81.1387 105.579C74.2267 112.491 63.56 106.688 64.6693 96.7894C65.096 92.6081 68.424 88.3414 71.5813 87.7441C72.52 87.5734 73.544 87.3174 73.8 87.2321C74.056 87.2321 75.6773 87.5734 77.4693 88.0854ZM101.789 89.8774C101.533 91.5841 100.936 91.8401 96.6693 92.0961C92.4027 92.3521 91.72 92.6081 91.72 93.9734C91.72 95.4241 92.3173 95.6801 95.9867 95.6801C99.9973 95.6801 100.253 95.8507 100.253 97.8134C100.253 99.7761 99.9973 99.9467 95.9867 99.9467H91.72V104.213C91.72 108.224 91.5493 108.48 89.5867 108.48H87.4533V98.2401V88.0001H94.792C101.875 88.0001 102.045 88.0854 101.789 89.8774ZM119.027 90.1334C119.027 92.1814 118.771 92.2667 114.333 92.2667C110.237 92.2667 109.64 92.4374 109.64 93.9734C109.64 95.4241 110.237 95.6801 113.48 95.6801C116.979 95.6801 117.32 95.8507 117.32 97.8134C117.32 99.7761 116.979 99.9467 113.565 99.9467H109.725L109.469 103.957C109.213 107.712 109.043 108.053 107.08 108.053H104.947L104.691 97.9841L104.435 88.0001H111.773C118.941 88.0001 119.027 88.0001 119.027 90.1334Z" fill="#FF0000"/>
<path d="M71.24 93.1201C69.0213 95.3388 68.936 100.8 71.0693 102.763C74.824 106.176 78.92 103.616 78.92 97.8134C78.92 94.9121 78.4933 93.8028 77.0427 92.7788C74.4827 90.9868 73.288 91.0721 71.24 93.1201Z" fill="#FF0000"/>
</svg>
