<svg width="185" height="126" viewBox="0 0 185 126" fill="none" xmlns="http://www.w3.org/2000/svg">
<path d="M37.24 25.1689C35.6356 26.52 35.4667 27.7022 35.2978 36.8222L35.0445 46.9556L17.9867 47.3778L0.928894 47.8L7.34667 55.5689L13.68 63.4222H24.5733H35.4667V74.8222C35.4667 85.8 35.5511 86.2222 37.4933 87.4889C39.1822 88.6711 45.5156 88.7556 89.4267 88.5867L139.502 88.3333L141.107 86.3067C142.373 84.7022 142.711 82.8445 142.796 76.5956C142.964 64.52 142.796 64.6889 150.733 64.6889H157.489L161.458 71.4445C167.791 82.3378 166.356 81.5778 175.898 78.5378C180.373 77.0178 184.089 75.4133 184.004 74.9067C184.004 74.4 181.049 68.0667 177.502 60.8889L171 47.8L157.32 47.5467L143.556 47.3778V37.2445C143.556 28.2089 143.387 26.9422 141.867 25.4222C140.178 23.7333 139.08 23.7333 89.5956 23.7333C42.6445 23.7333 38.9289 23.8178 37.24 25.1689ZM138.489 39.7778V51.6L153.098 51.7689L167.622 52.0222L172.436 61.7333C175.053 67.0533 177.249 71.9511 177.249 72.5422C177.333 73.5556 175.138 74.7378 171.084 75.7511C169.311 76.1733 168.636 75.4133 164.667 68.4889L160.276 60.8045L149.636 61.0578L138.911 61.3111L138.658 72.2889C138.489 79.72 138.067 83.4356 137.391 83.8578C136.8 84.1956 115.098 84.5333 89.0889 84.5333C53.3689 84.5333 41.4622 84.28 40.7022 83.52C40.0267 82.8445 39.6889 78.7911 39.6889 70.8533V59.2H28.12H16.5511L13.7645 56.4978C12.2445 54.9778 10.9778 53.5422 10.9778 53.12C10.9778 52.7822 17.3111 52.36 25.1645 52.2756L39.2667 52.0222L39.52 39.9467L39.7733 27.9556H89.0889H138.489V39.7778Z" fill="white"/>
<path d="M46.0222 35.1334C41.2933 39.7778 44.9244 47.3778 51.9333 47.3778C54.6356 47.3778 59.1111 43.1556 59.1111 40.6223C59.1111 38.1734 56.9156 34.2045 55.3111 33.5289C52.1867 32.3467 48.0489 33.0223 46.0222 35.1334ZM54.8889 36.4C58.0978 39.6089 56.0711 44.8445 51.5956 44.8445C45.9378 44.76 43.9956 38.4267 48.8089 35.64C51.0044 34.2889 53.0311 34.5423 54.8889 36.4Z" fill="white"/>
<path d="M65.7822 34.12C64.0089 35.4711 62.4889 38.4267 62.4889 40.4534C62.4889 43.0711 65.6978 46.4489 68.7378 47.04C76 48.3911 80.7289 40.2 75.5778 35.1334C73.2978 32.7689 68.1467 32.2623 65.7822 34.12ZM73.9733 36.8223C77.2667 40.1156 75.0711 44.8445 70.1733 44.8445C65.5289 44.8445 63.4178 39.6934 66.7111 36.4C68.9911 34.12 71.44 34.2889 73.9733 36.8223Z" fill="white"/>
<path d="M83.6 35.1334C77.9422 41.2134 85.2044 50.08 92.72 46.1956C95.5067 44.76 96.2667 43.4089 96.2667 39.44C96.2667 33.4445 87.9067 30.5734 83.6 35.1334ZM92.3822 36.4845C95 38.5111 95.1689 40.8756 92.8889 43.1556C89.5111 46.5334 83.6 44.2534 83.6 39.6934C83.6 38.0889 87.4 34.7111 89.0889 34.7111C89.68 34.7111 91.1156 35.4711 92.3822 36.4845Z" fill="white"/>
<path d="M102.6 35.1333C99.4756 38.1733 99.7289 42.3955 103.107 45.1822C106.569 48.1377 110.116 48.0533 113.24 44.9289C118.138 39.9466 115.182 33.0222 108.089 33.0222C105.556 33.0222 104.12 33.5289 102.6 35.1333ZM111.298 36.0622C114.929 38.5955 112.733 44.8444 108.173 44.8444C104.373 44.8444 101.84 41.6355 103.107 38.3422C104.373 34.88 108.089 33.7822 111.298 36.0622Z" fill="white"/>
<path d="M122.36 34.12C117.209 38.0888 118.982 45.7733 125.4 47.04C128.524 47.6311 132.916 45.7733 133.76 43.5777C135.027 40.2844 134.267 36.5688 132.071 34.7955C129.538 32.8533 124.471 32.4311 122.36 34.12ZM130.467 36.8222C131.649 37.92 132.578 39.44 132.578 40.2C132.578 42.2266 129.453 44.8444 126.92 44.8444C122.107 44.8444 119.911 39.7777 123.289 36.4C125.569 34.12 128.018 34.2888 130.467 36.8222Z" fill="white"/>
<path d="M55.8178 51.0933C50.3289 56.92 56.7467 65.5333 64.4311 62.6622C67.0489 61.6489 69.5822 56.8356 68.6533 54.3867C66.7956 48.8978 59.6178 47.04 55.8178 51.0933ZM64.5156 52.5289C67.0489 54.4711 67.3022 56.3289 65.36 59.0311C62.6578 62.9156 55.7333 60.4667 55.7333 55.7378C55.7333 54.1333 59.5333 50.7556 61.2222 50.7556C61.8133 50.7556 63.2489 51.5156 64.5156 52.5289Z" fill="white"/>
<path d="M76.1689 49.6578C74.7333 50.1645 72.6222 54.4711 72.6222 56.6667C72.6222 59.2 77.0978 63.4222 79.8 63.4222C86.8089 63.4222 90.44 55.8222 85.7111 51.1778C83.7689 49.1511 79.2089 48.3911 76.1689 49.6578ZM82.84 51.6845C85.12 52.8667 86.1333 55.8222 85.0356 57.9334C83.9378 60.1289 82.7556 60.8889 80.3067 60.8889C75.6622 60.8889 73.5511 55.7378 76.8444 52.4445C78.7022 50.5867 80.3911 50.3334 82.84 51.6845Z" fill="white"/>
<path d="M94.4089 50.7555C88.4134 55.4844 93.2267 64.52 100.996 63C109.44 61.48 108.258 49.0667 99.6445 49.0667C97.7867 49.0667 95.5911 49.7422 94.4089 50.7555ZM102.516 52.5289C105.049 54.4711 105.302 56.3289 103.36 59.0311C100.658 62.9155 93.7334 60.4667 93.7334 55.7378C93.7334 54.1333 97.5334 50.7555 99.2223 50.7555C99.8134 50.7555 101.249 51.5155 102.516 52.5289Z" fill="white"/>
<path d="M112.733 51.1778C109.778 54.0489 109.947 57.7645 113.071 60.9734C114.76 62.6622 116.364 63.4222 118.222 63.4222C121.853 63.4222 125.822 59.4534 125.822 55.8222C125.822 51.9378 122.613 49.0667 118.222 49.0667C115.689 49.0667 114.253 49.5734 112.733 51.1778ZM121.431 52.1067C125.062 54.64 122.867 60.8889 118.391 60.8889C113.578 60.8889 111.213 54.7245 115.013 52.1067C116.027 51.3467 117.462 50.7556 118.222 50.7556C118.982 50.7556 120.418 51.3467 121.431 52.1067Z" fill="white"/>
<path d="M46.36 67.56C41.4622 72.5422 44.4178 79.4667 51.5111 79.4667C58.6045 79.4667 61.56 72.5422 56.6622 67.56C53.2845 64.2667 49.7378 64.2667 46.36 67.56ZM55.2267 69.2489C57.3378 71.6133 56.6622 75.3289 53.8756 76.9333C51.7645 78.0311 51.2578 78.0311 49.2311 76.9333C44.6711 74.4 46.36 67.6445 51.5111 67.6445C52.7778 67.6445 54.4667 68.4045 55.2267 69.2489Z" fill="white"/>
<path d="M65.36 67.1378C60.3778 71.36 63.5867 79.4667 70.0889 79.4667C74.48 79.4667 77.6889 76.7645 77.6889 73.1333C77.6889 69.1645 77.0133 67.7289 74.2267 66.3778C70.8489 64.6045 67.9778 64.8578 65.36 67.1378ZM74.3111 69.3333C75.24 70.2622 76 71.7822 76 72.6267C76 74.3156 72.2845 77.7778 70.5111 77.7778C68.8222 77.7778 65.0222 74.4 65.0222 72.7956C65.0222 68.2356 70.9333 65.9556 74.3111 69.3333Z" fill="white"/>
<path d="M85.7111 66.1245C83.0089 67.56 81.9111 69.4178 81.9111 72.7956C81.9111 76.8489 84.9511 79.4667 89.5111 79.4667C93.8178 79.4667 97.5334 75.4133 96.7734 71.5289C95.76 66.4622 90.1022 63.6756 85.7111 66.1245ZM93.0578 69.08C94.5778 70.4311 95 73.2178 93.9022 74.9067C93.1422 76.0045 90.0178 77.7778 88.6667 77.7778C87.3156 77.7778 83.6 73.8089 83.6 72.2889C83.6 68.4889 90.0178 66.2933 93.0578 69.08Z" fill="white"/>
<path d="M102.938 67.56C98.04 72.5422 100.996 79.4667 108.089 79.4667C115.267 79.4667 118.391 71.7822 113.071 67.3067C109.609 64.3511 106.062 64.4356 102.938 67.56ZM111.889 68.9956C114 71.1067 113.24 75.3289 110.453 76.9333C108.342 78.0311 107.836 78.0311 105.809 76.9333C101.249 74.4 102.938 67.6445 108.173 67.6445C109.44 67.6445 111.129 68.2356 111.889 68.9956Z" fill="white"/>
<path d="M122.191 66.8C118.391 69.84 118.476 75.4133 122.36 78.3689C123.12 78.96 125.147 79.4667 126.92 79.4667C134.351 79.4667 137.307 69.6711 130.804 66.3778C127.511 64.6889 124.724 64.7733 122.191 66.8ZM130.889 69.3333C133.084 71.5289 133 73.2178 130.467 75.6667C128.187 78.0311 127.342 78.2 124.724 76.8489C122.444 75.5822 121.6 74.4845 121.6 72.3733C121.6 68.0667 127.68 66.1245 130.889 69.3333Z" fill="white"/>
<path d="M65.8667 99.0578C61.6444 101.929 59.7867 105.053 59.28 109.782C58.7733 115.271 61.3911 120.844 65.6978 123.547C68.7378 125.404 69.3289 125.489 90.7778 125.489C112.396 125.489 112.818 125.489 115.942 123.462C120.418 120.676 122.698 115.862 122.276 110.12C121.853 105.053 119.996 102.013 115.689 99.0578C112.987 97.2844 112.311 97.2 90.7778 97.2C69.2444 97.2 68.5689 97.2844 65.8667 99.0578ZM79.9689 104.378C82.7556 107.164 82.9244 107.587 82.5867 111.724C82.2489 115.271 81.6578 116.538 79.4622 118.48C74.3111 123.04 66.9644 120.844 64.9378 114.173C62.9956 107.587 67.2178 101.422 73.6356 101.422C76.3378 101.422 77.6044 102.013 79.9689 104.378ZM98.8 103.533C98.8 105.476 98.5467 105.644 94.5778 105.644C90.9467 105.644 90.3556 105.898 90.3556 107.249C90.3556 108.6 91.0311 108.938 93.9867 109.191C96.9422 109.36 97.6178 109.782 97.7867 111.302C98.04 113.076 97.7022 113.244 94.24 113.244H90.44L90.1867 116.791C89.9333 120.084 89.68 120.422 87.6533 120.676L85.2889 120.929V111.724C85.2889 106.658 85.5422 102.267 85.88 102.013C86.1333 101.676 89.1733 101.422 92.6356 101.422C98.6311 101.422 98.8 101.507 98.8 103.533ZM114.844 103.533C114.844 105.476 114.591 105.644 110.622 105.644C106.991 105.644 106.4 105.898 106.4 107.333C106.4 108.769 106.991 109.022 110.2 109.022C113.662 109.022 114 109.191 114 111.133C114 113.076 113.662 113.244 110.2 113.244H106.4V117.129C106.4 120.844 106.316 120.929 104.12 120.676L101.756 120.422L101.502 112.062C101.418 107.418 101.502 103.111 101.671 102.52C102.009 101.76 103.951 101.422 108.511 101.422C114.676 101.422 114.844 101.507 114.844 103.533Z" fill="#D10909"/>
<path d="M70.0889 107.249C68.9067 109.529 68.9911 114.342 70.2578 115.609C71.5245 116.876 75.4089 116.876 76.6756 115.609C78.0267 114.258 78.0267 108.009 76.6756 106.658C75.0711 105.053 71.1022 105.391 70.0889 107.249Z" fill="#D10909"/>
<path d="M118.115 20.12C117.262 20.12 116.495 19.9733 115.815 19.68C115.148 19.3867 114.615 18.9133 114.215 18.26C113.828 17.6067 113.635 16.74 113.635 15.66V9.84C113.635 8.76 113.828 7.89333 114.215 7.24C114.615 6.58667 115.148 6.11333 115.815 5.82C116.495 5.52667 117.242 5.38 118.055 5.38C118.962 5.38 119.755 5.53333 120.435 5.84C121.115 6.14667 121.648 6.57333 122.035 7.12C122.422 7.66667 122.615 8.32 122.615 9.08C122.615 9.48 122.522 9.75333 122.335 9.9C122.162 10.0333 121.902 10.1 121.555 10.1C121.275 10.1 121.028 10.0533 120.815 9.96C120.615 9.85333 120.508 9.66667 120.495 9.4C120.455 9.01333 120.362 8.66 120.215 8.34C120.068 8.00667 119.828 7.74667 119.495 7.56C119.162 7.36 118.702 7.26 118.115 7.26C117.368 7.26 116.782 7.47333 116.355 7.9C115.942 8.31333 115.735 8.96 115.735 9.84V15.66C115.735 16.54 115.942 17.1933 116.355 17.62C116.782 18.0333 117.368 18.24 118.115 18.24C118.848 18.24 119.428 18.0333 119.855 17.62C120.282 17.1933 120.495 16.54 120.495 15.66V14.02H118.475C118.262 14.02 118.095 13.9333 117.975 13.76C117.855 13.5867 117.795 13.3867 117.795 13.16C117.795 12.96 117.855 12.7733 117.975 12.6C118.095 12.4133 118.262 12.32 118.475 12.32H121.915C122.142 12.32 122.315 12.3933 122.435 12.54C122.555 12.6733 122.615 12.84 122.615 13.04V15.66C122.615 16.74 122.415 17.6067 122.015 18.26C121.615 18.9133 121.075 19.3867 120.395 19.68C119.715 19.9733 118.955 20.12 118.115 20.12ZM125.929 20C125.662 20 125.415 19.94 125.189 19.82C124.975 19.7 124.869 19.5267 124.869 19.3V6.06C124.869 5.87333 124.942 5.71333 125.089 5.58C125.249 5.44667 125.449 5.38 125.689 5.38H129.589C130.402 5.38 131.142 5.52667 131.809 5.82C132.475 6.1 133.002 6.56667 133.389 7.22C133.775 7.86 133.969 8.71333 133.969 9.78V9.94C133.969 11.0067 133.769 11.8667 133.369 12.52C132.982 13.1733 132.442 13.6467 131.749 13.94C131.069 14.22 130.309 14.36 129.469 14.36H126.989V19.3C126.989 19.5267 126.875 19.7 126.649 19.82C126.435 19.94 126.195 20 125.929 20ZM126.989 12.68H129.469C130.215 12.68 130.795 12.4667 131.209 12.04C131.635 11.6133 131.849 10.96 131.849 10.08V9.84C131.849 8.96 131.635 8.31333 131.209 7.9C130.795 7.47333 130.215 7.26 129.469 7.26H126.989V12.68ZM136.847 20C136.58 20 136.333 19.9467 136.107 19.84C135.893 19.72 135.787 19.54 135.787 19.3V6.08C135.787 5.85333 135.887 5.68 136.087 5.56C136.287 5.44 136.5 5.38 136.727 5.38H143.747C143.987 5.38 144.16 5.48 144.267 5.68C144.373 5.88 144.427 6.08667 144.427 6.3C144.427 6.55333 144.367 6.78 144.247 6.98C144.14 7.16667 143.973 7.26 143.747 7.26H137.907V11.84H141.007C141.233 11.84 141.4 11.9267 141.507 12.1C141.627 12.2733 141.687 12.4733 141.687 12.7C141.687 12.8867 141.633 13.0733 141.527 13.26C141.42 13.4333 141.247 13.52 141.007 13.52H137.907V19.3C137.907 19.54 137.793 19.72 137.567 19.84C137.353 19.9467 137.113 20 136.847 20Z" fill="white"/>
</svg>
