<svg width="173" height="173" viewBox="0 0 173 173" fill="none" xmlns="http://www.w3.org/2000/svg">
<path d="M75.7355 10.5338C64.2022 12.3791 50.3622 18.0689 41.5969 24.5275C13.3787 45.4413 2.99865 81.8098 15.8391 114.564C20.068 125.329 22.836 128.174 26.5267 125.79C29.1409 124.099 28.9871 121.715 25.7578 115.333C20.9138 105.645 19.6067 99.648 19.6067 86.1155C19.6067 76.0431 19.9142 73.2751 21.3751 68.2004C27.3724 47.4404 42.5964 30.7555 62.5875 22.9898C96.4955 9.84176 134.709 26.6804 149.164 61.2804C152.778 69.8151 154.008 77.9653 153.547 89.1142C153.086 100.109 151.394 107.029 147.242 115.333C144.167 121.408 143.936 123.022 145.935 124.791C147.627 126.328 149.933 126.482 151.702 125.098C153.701 123.637 158.314 112.796 160.467 104.646C162.159 98.3409 162.466 95.6498 162.389 86.1155C162.389 76.5813 162.082 73.8133 160.39 67.3546C153.316 40.2129 132.48 19.376 105.492 12.2253C99.648 10.6106 81.3484 9.61109 75.7355 10.5338Z" fill="white"/>
<path d="M85.3466 24.9889C85.3466 28.6796 85.5004 29.2178 86.8844 29.2178C88.2684 29.2178 88.4222 28.6796 88.4222 24.9889C88.4222 21.2982 88.2684 20.76 86.8844 20.76C85.5004 20.76 85.3466 21.2982 85.3466 24.9889Z" fill="white"/>
<path d="M53.976 30.2173C53.3609 30.9862 53.5915 31.9858 55.0524 34.4462C56.744 37.2911 57.1284 37.5218 58.4355 36.7529C59.8195 35.8302 59.8195 35.7533 58.0511 32.7547C55.8982 29.2178 55.2062 28.7565 53.976 30.2173Z" fill="white"/>
<path d="M115.641 32.3702C114.026 34.9075 113.872 35.6764 114.718 36.2147C116.487 37.368 117.256 36.9835 119.024 33.6773C120.331 31.2169 120.485 30.3711 119.793 29.8329C118.178 28.8333 117.717 29.064 115.641 32.3702Z" fill="white"/>
<path d="M123.484 37.2142C122.253 39.1364 122.33 39.2133 127.789 44.5956L133.325 49.9778L135.248 48.1324L137.093 46.2871L131.557 40.828C128.481 37.8293 125.713 35.3689 125.406 35.3689C125.021 35.3689 124.176 36.2147 123.484 37.2142Z" fill="#D10909"/>
<path d="M30.8324 53.284C29.4484 54.668 29.756 55.1293 33.3698 57.1284C36.4453 58.82 36.7529 58.8969 37.5218 57.5898C38.5213 56.052 38.06 55.5138 34.1386 53.5915C32.3702 52.6689 31.5244 52.592 30.8324 53.284Z" fill="white"/>
<path d="M138.708 54.9756C137.17 56.1289 137.17 56.1289 139.63 61.2804C146.704 76.1969 146.935 93.1124 140.322 109.336C139.938 110.259 140.476 110.951 142.168 111.796L144.551 113.027L145.781 110.182C150.472 99.1098 151.625 82.0404 148.472 70.4302C146.55 63.2796 142.398 53.8222 141.168 53.8991C140.707 53.8991 139.63 54.4373 138.708 54.9756Z" fill="#D10909"/>
<path d="M75.9662 80.0413C74.3515 80.964 74.1209 84.8084 75.5818 85.9618C76.0431 86.3462 77.7347 86.9613 79.1955 87.2689C80.6564 87.5764 82.348 88.576 82.9631 89.4218C83.8858 90.652 84.5778 90.8826 87.7302 90.4982C90.5751 90.1138 94.8809 90.8826 106.876 93.8813C115.41 95.9573 122.638 97.6489 122.945 97.6489C123.176 97.572 116.487 94.7271 108.029 91.2671C97.7258 87.0382 91.9591 84.2702 90.4982 82.7324C88.7298 80.964 87.884 80.6564 86.0387 81.0409C84.6547 81.2715 82.5787 81.0409 80.964 80.3489C77.8115 79.0418 77.6578 78.9649 75.9662 80.0413Z" fill="white"/>
<path d="M22.2978 86.1155C22.2978 87.4227 22.836 87.6533 26.1422 87.6533C29.4484 87.6533 29.9866 87.4227 29.9866 86.1155C29.9866 84.8084 29.4484 84.5778 26.1422 84.5778C22.836 84.5778 22.2978 84.8084 22.2978 86.1155Z" fill="white"/>
<path d="M33.6773 114.641C30.2173 116.41 29.756 117.102 30.9862 118.64C31.832 119.639 32.2933 119.562 35.2151 117.717C37.9831 115.948 38.2907 115.487 37.5218 114.411C36.5991 113.257 36.2916 113.257 33.6773 114.641Z" fill="white"/>
<path d="M31.6782 129.327C31.14 129.865 30.7556 131.864 30.7556 133.787C30.7556 137.631 31.7551 139.169 34.2156 139.169C36.676 139.169 37.6756 137.631 37.6756 133.787C37.6756 129.942 36.676 128.404 34.2156 128.404C33.2929 128.404 32.2164 128.789 31.6782 129.327ZM35.8302 131.788C36.5991 134.94 35.9071 137.247 34.2156 137.247C33.0622 137.247 32.6009 136.632 32.4471 134.709C32.2933 133.248 32.3702 131.634 32.6009 131.019C33.2929 129.327 35.292 129.788 35.8302 131.788Z" fill="white"/>
<path d="M120.716 133.71C120.716 136.862 121.023 139.169 121.484 139.169C121.946 139.169 122.253 137.4 122.253 135.248C122.253 130.634 123.176 130.865 124.56 135.709C125.713 139.861 126.79 139.784 128.404 135.478C130.173 130.865 130.711 130.788 130.711 135.171C130.711 137.4 131.096 139.169 131.48 139.169C131.941 139.169 132.249 136.862 132.249 133.787C132.249 129.02 132.095 128.404 130.788 128.404C129.712 128.404 129.02 129.25 128.404 131.249C127.02 135.632 126.405 135.786 125.175 132.095C124.329 129.712 123.56 128.712 122.407 128.558C120.792 128.328 120.716 128.558 120.716 133.71Z" fill="#D10909"/>
<path d="M134.94 132.249C134.556 132.864 135.248 132.941 137.247 132.556C139.553 132.172 140.092 132.249 139.784 133.095C139.553 133.71 138.4 134.325 137.17 134.556C135.401 134.863 134.94 135.324 134.94 136.862C134.94 138.631 135.248 138.784 138.246 138.861L141.552 138.938L141.322 135.401C141.091 131.941 141.014 131.864 138.246 131.634C136.708 131.48 135.248 131.788 134.94 132.249ZM139.938 136.016C139.938 136.401 139.4 137.093 138.784 137.631C137.4 138.784 135.555 137.554 136.401 136.17C137.016 135.171 139.938 135.017 139.938 136.016Z" fill="#D10909"/>
<path d="M143.782 132.095C143.782 132.403 144.167 133.095 144.705 133.633C145.474 134.402 145.32 135.094 144.32 136.862C142.783 139.4 144.013 140.168 145.781 137.785C146.704 136.555 146.858 136.555 147.934 138.016C149.472 140.092 150.395 138.938 148.934 136.785C147.857 135.324 147.857 134.94 148.934 133.325C150.01 131.711 150.01 131.48 148.934 131.48C148.319 131.48 147.627 131.941 147.396 132.403C147.088 133.172 146.858 133.172 146.012 132.403C144.859 131.326 143.782 131.172 143.782 132.095Z" fill="#D10909"/>
</svg>
