<svg width="173" height="71" viewBox="0 0 173 71" fill="none" xmlns="http://www.w3.org/2000/svg">
<path d="M157.56 1.25067C152.552 4.052 151.788 10.4187 156.032 15.0876C158.579 17.804 159.428 18.1436 162.908 18.1436C172.246 18.1436 175.981 6.76844 168.341 1.42044C166.049 -0.192446 160.362 -0.277334 157.56 1.25067ZM168.341 3.96711C171.058 7.108 170.888 11.4373 167.747 14.5782C164.946 17.2947 162.824 17.6342 159.258 15.7667C156.457 14.3236 155.778 12.9653 155.778 8.636C155.778 1.76 163.672 -1.21111 168.341 3.96711Z" fill="white"/>
<path d="M159.173 9.31512C159.173 12.2013 159.513 14.4933 160.022 14.4933C160.532 14.4933 160.871 13.3049 160.871 11.9467C160.871 10.5036 161.211 9.40001 161.635 9.40001C162.144 9.40001 163.163 10.5036 164.012 11.9467C165.88 15.1725 167.238 15.2573 165.625 12.0316C164.436 9.82446 164.436 9.4849 165.625 9.06046C166.389 8.7209 166.813 7.78712 166.644 6.68357C166.474 5.07068 165.795 4.64624 162.824 4.47646L159.173 4.22179V9.31512ZM165.116 6.85335C165.116 8.12668 164.521 8.55112 162.993 8.55112C161.465 8.55112 160.871 8.12668 160.871 6.85335C160.871 5.58001 161.465 5.15557 162.993 5.15557C164.521 5.15557 165.116 5.58001 165.116 6.85335Z" fill="white"/>
<path d="M6.628 15.0876C-0.502671 33.6782 -0.163116 32.1502 3.14755 32.4898C5.69422 32.7444 6.03377 32.4898 7.30711 29.3489L8.75022 25.9533H14.8622H21.0591L22.2476 29.3489C23.2662 32.4898 23.5209 32.7444 26.6618 32.7444H29.8876L27.8502 27.2267C26.6618 24.1707 24.1151 17.2947 22.0778 11.9467L18.4276 2.18444L15.1169 1.92978L11.7213 1.67511L6.628 15.0876ZM16.8996 14.2387C17.7484 16.9551 18.6822 19.6716 18.852 20.1809C19.1916 21.0298 18.088 21.2844 14.8622 21.2844C11.6364 21.2844 10.5329 21.0298 10.8724 20.1809C11.0422 19.6716 11.976 16.9551 12.8249 14.2387C13.6738 11.6071 14.6076 9.4 14.8622 9.4C15.1169 9.4 16.0507 11.6071 16.8996 14.2387Z" fill="white"/>
<path d="M33.5378 17.4645V33.3387L42.2813 32.9991C52.2982 32.5747 55.2693 31.3862 58.2404 26.6325C60.9569 22.3031 61.1267 12.8805 58.58 8.63602C55.3542 3.20313 53.1471 2.26935 42.7907 1.9298L33.5378 1.59024V17.4645ZM48.7329 7.78713C52.1284 8.97557 53.9111 12.3711 53.9111 17.804C53.9111 21.2845 53.4867 22.5578 51.6191 24.68C49.6667 26.8871 48.3933 27.3965 44.4036 27.8209L39.48 28.3302V17.5494V6.85335H42.7907C44.5733 6.85335 47.2049 7.2778 48.7329 7.78713Z" fill="white"/>
<path d="M64.9467 17.04V32.32H67.9178C70.2098 32.32 70.8889 31.9804 70.8889 30.792C70.8889 29.9431 71.1435 29.6884 71.568 30.2827C72.6715 31.9804 75.8124 33.1689 78.9533 33.1689C83.2827 33.1689 86.6782 29.6884 87.4422 24.3404C89.0551 13.8142 81.7547 7.19288 73.4355 11.5222L70.8889 12.8804V7.27777V1.75999H67.9178H64.9467V17.04ZM79.3778 15.1724C80.736 16.276 81.4151 17.8889 81.6698 21.0298C82.0942 24.9347 81.8395 25.6138 79.8871 27.6511C75.8973 31.6409 70.8889 28.2453 70.8889 21.5391C70.8889 18.7378 71.3982 17.2947 73.0111 15.7667C75.4729 13.22 76.8311 13.1351 79.3778 15.1724Z" fill="white"/>
<path d="M92.1111 16.9551V32.1502L95.0822 32.4898L98.0533 32.8293V17.2947V1.76001H95.0822H92.1111V16.9551Z" fill="white"/>
<path d="M134.895 11.0129C128.698 13.8142 126.661 23.0671 130.905 28.8395C133.112 31.8107 138.376 33.5933 142.535 32.8293C145.676 32.2351 149.836 29.0942 149.836 27.2267C149.836 25.8684 145.082 26.208 143.893 27.6511C141.432 30.6222 134.556 28.2453 134.556 24.4253C134.556 23.152 135.659 22.9822 142.62 22.9822H150.684V20.7751C150.684 12.6258 142.45 7.53243 134.895 11.0129ZM144.488 17.1249C145.506 19.1622 145.506 19.1622 140.413 19.4169C134.64 19.6715 133.792 19.332 135.065 17.2098C137.527 13.3898 142.535 13.3049 144.488 17.1249Z" fill="white"/>
<path d="M103.996 19.5867C103.996 28.4151 104.08 29.0943 106.118 31.0467C108.749 33.7631 113.843 33.9329 117.068 31.3863C119.106 29.7734 119.276 29.7734 119.276 31.2165C119.276 32.32 119.955 32.7445 121.822 32.7445H124.369V21.4543V10.2489H121.907H119.445L119.106 18.3983C118.851 27.3116 117.748 29.264 113.333 28.7547C110.108 28.3303 109.004 25.2743 109.259 17.2098L109.513 10.2489H106.797H103.996V19.5867Z" fill="white"/>
<path d="M57.3067 42.5916C51.9587 44.7138 48.8178 49.8071 48.8178 56.3436C48.8178 61.4369 50.7702 65.172 55.0147 68.3129C57.3067 70.0107 58.6649 70.0956 79.5476 70.3503L101.619 70.6049L105.269 68.4827C114.946 62.7951 114.522 48.2791 104.505 43.4405C101.194 41.7427 99.4965 41.6578 80.1418 41.7427C68.512 41.7427 58.4951 42.1671 57.3067 42.5916ZM67.5782 47.2605C72.8413 49.9769 73.9449 58.8054 69.4458 63.2196C66.4747 66.1907 63.0791 66.7849 59.2591 64.8325C55.1844 62.88 53.7413 60.1636 54.1658 54.9854C54.8449 47.5151 61.0418 43.8649 67.5782 47.2605ZM88.7156 48.4489C88.7156 49.9769 88.1213 50.1467 84.0467 50.1467C79.6325 50.1467 79.3778 50.2316 79.3778 52.2689C79.3778 54.2214 79.7173 54.3911 83.1978 54.3911C86.4236 54.3911 87.0178 54.6458 87.0178 56.0889C87.0178 57.532 86.4236 57.7867 83.1978 57.7867H79.3778V61.6067C79.3778 65.0871 79.208 65.4267 77.2556 65.4267H75.1333V56.0889V46.7511H81.9244C88.1213 46.7511 88.7156 46.9209 88.7156 48.4489ZM104.844 48.4489C104.844 49.9769 104.25 50.1467 100.176 50.1467C95.7613 50.1467 95.5067 50.2316 95.5067 52.2689C95.5067 54.2214 95.8462 54.3911 99.3267 54.3911C102.552 54.3911 103.147 54.6458 103.147 56.0889C103.147 57.532 102.552 57.7867 99.3267 57.7867H95.5067V61.6067C95.5067 65.0871 95.3369 65.4267 93.3844 65.4267H91.2622V56.0889V46.7511H98.0533C104.25 46.7511 104.844 46.9209 104.844 48.4489Z" fill="#D10909"/>
<path d="M60.0231 51.2503C57.1369 54.6458 58.3253 60.7578 62.0604 61.6916C63.8431 62.2009 64.692 61.8614 65.9653 60.3334C67.8329 58.0414 68.0027 53.2876 66.1351 51.5049C64.5222 49.892 61.2116 49.7223 60.0231 51.2503Z" fill="#D10909"/>
</svg>
