<svg width="32" height="32" viewBox="0 0 32 32" fill="none" xmlns="http://www.w3.org/2000/svg">
<path d="M16 1.92007C8.23141 1.92007 1.92001 8.23147 1.92001 16.0001C1.92001 23.0523 7.12163 28.8886 13.8963 29.9063L14.6313 30.0176V18.9226H11.305V16.6701H14.6313V13.6788C14.6313 11.8369 15.0733 10.6237 15.805 9.86257C16.5368 9.10145 17.6179 8.71757 19.1225 8.71757C20.3256 8.71757 20.7936 8.79047 21.2388 8.84507V10.6888H19.6725C18.7838 10.6888 18.0547 11.1847 17.6763 11.8451C17.2978 12.5055 17.18 13.294 17.18 14.0976V16.6688H21.0988L20.75 18.9213H17.18V30.0351L17.9063 29.9363C24.7772 29.0045 30.08 23.1213 30.08 16.0001C30.08 8.23147 23.7686 1.92007 16 1.92007ZM16 3.20007C23.0769 3.20007 28.8 8.92323 28.8 16.0001C28.8 22.2271 24.3429 27.3484 18.46 28.5013V20.2013H21.8475L22.5913 15.3888H18.46V14.0976C18.46 13.4336 18.5815 12.8387 18.7863 12.4813C18.991 12.124 19.1884 11.9688 19.6725 11.9688H22.5188V7.68632L21.9638 7.61132C21.5799 7.55938 20.7035 7.43757 19.1225 7.43757C17.3925 7.43757 15.9076 7.90884 14.8825 8.97507C13.8575 10.0413 13.3513 11.629 13.3513 13.6788V15.3901H10.025V20.2026H13.3513V28.4613C7.56289 27.2352 3.20001 22.1597 3.20001 16.0001C3.20001 8.92323 8.92317 3.20007 16 3.20007Z" fill="white"/>
</svg>
