<svg width="32" height="32" viewBox="0 0 32 32" fill="none" xmlns="http://www.w3.org/2000/svg">
<path d="M10.24 1.92007C5.65279 1.92007 1.92 5.65286 1.92 10.2401V21.7601C1.92 26.3473 5.65279 30.0801 10.24 30.0801H21.76C26.3472 30.0801 30.08 26.3473 30.08 21.7601V10.2401C30.08 5.65286 26.3472 1.92007 21.76 1.92007H10.24ZM10.24 3.20007H21.76C25.6553 3.20007 28.8 6.34472 28.8 10.2401V21.7601C28.8 25.6554 25.6553 28.8001 21.76 28.8001H10.24C6.34465 28.8001 3.2 25.6554 3.2 21.7601V10.2401C3.2 6.34472 6.34465 3.20007 10.24 3.20007ZM23.68 7.04007C23.3405 7.04007 23.0149 7.17493 22.7749 7.41498C22.5349 7.65502 22.4 7.9806 22.4 8.32007C22.4 8.65955 22.5349 8.98512 22.7749 9.22517C23.0149 9.46522 23.3405 9.60007 23.68 9.60007C24.0195 9.60007 24.345 9.46522 24.5851 9.22517C24.8251 8.98512 24.96 8.65955 24.96 8.32007C24.96 7.9806 24.8251 7.65502 24.5851 7.41498C24.345 7.17493 24.0195 7.04007 23.68 7.04007ZM16 8.96007C12.1195 8.96007 8.96 12.1196 8.96 16.0001C8.96 19.8806 12.1195 23.0401 16 23.0401C19.8805 23.0401 23.04 19.8806 23.04 16.0001C23.04 12.1196 19.8805 8.96007 16 8.96007ZM16 10.2401C19.1887 10.2401 21.76 12.8113 21.76 16.0001C21.76 19.1888 19.1887 21.7601 16 21.7601C12.8113 21.7601 10.24 19.1888 10.24 16.0001C10.24 12.8113 12.8113 10.2401 16 10.2401Z" fill="white"/>
<path d="M10.24 1.92007C5.65279 1.92007 1.92 5.65286 1.92 10.2401V21.7601C1.92 26.3473 5.65279 30.0801 10.24 30.0801H21.76C26.3472 30.0801 30.08 26.3473 30.08 21.7601V10.2401C30.08 5.65286 26.3472 1.92007 21.76 1.92007H10.24ZM10.24 3.20007H21.76C25.6553 3.20007 28.8 6.34472 28.8 10.2401V21.7601C28.8 25.6554 25.6553 28.8001 21.76 28.8001H10.24C6.34465 28.8001 3.2 25.6554 3.2 21.7601V10.2401C3.2 6.34472 6.34465 3.20007 10.24 3.20007ZM23.68 7.04007C23.3405 7.04007 23.0149 7.17493 22.7749 7.41498C22.5349 7.65502 22.4 7.9806 22.4 8.32007C22.4 8.65955 22.5349 8.98512 22.7749 9.22517C23.0149 9.46522 23.3405 9.60007 23.68 9.60007C24.0195 9.60007 24.345 9.46522 24.5851 9.22517C24.8251 8.98512 24.96 8.65955 24.96 8.32007C24.96 7.9806 24.8251 7.65502 24.5851 7.41498C24.345 7.17493 24.0195 7.04007 23.68 7.04007ZM16 8.96007C12.1195 8.96007 8.96 12.1196 8.96 16.0001C8.96 19.8806 12.1195 23.0401 16 23.0401C19.8805 23.0401 23.04 19.8806 23.04 16.0001C23.04 12.1196 19.8805 8.96007 16 8.96007ZM16 10.2401C19.1887 10.2401 21.76 12.8113 21.76 16.0001C21.76 19.1888 19.1887 21.7601 16 21.7601C12.8113 21.7601 10.24 19.1888 10.24 16.0001C10.24 12.8113 12.8113 10.2401 16 10.2401Z" fill="white"/>
</svg>
