<svg width="32" height="32" viewBox="0 0 32 32" fill="none" xmlns="http://www.w3.org/2000/svg">
<path d="M16 30C8.3 30 2 23.7 2 16C2 8.3 8.3 2 16 2C23.7 2 30 8.3 30 16C30 23.7 23.7 30 16 30ZM16 3.4C9.07 3.4 3.4 9.07 3.4 16C3.4 22.93 9.07 28.6 16 28.6C22.93 28.6 28.6 22.93 28.6 16C28.6 9.07 22.93 3.4 16 3.4Z" fill="white"/>
<path fill-rule="evenodd" clip-rule="evenodd" d="M13.79 18.5139L20.1991 12.5649C20.4748 12.2816 20.1302 12.2108 19.7857 12.4233L11.9293 17.5224L8.5524 16.4601C7.79433 16.2476 7.79433 15.681 8.69024 15.3269L21.991 10.0862C22.6112 9.80287 23.1625 10.2278 22.9558 11.2193L20.6816 22.1966C20.5437 22.9757 20.0613 23.1881 19.4411 22.834L15.9953 20.2136L14.3413 21.8425C14.1346 22.055 13.8589 22.055 13.8589 21.8425L13.79 18.5139Z" fill="white"/>
</svg>
