<svg width="26" height="26" viewBox="0 0 26 26" fill="none" xmlns="http://www.w3.org/2000/svg">
<g clip-path="url(#clip0_266_158)">
<path d="M14.0985 0C7.5365 0 2.19465 5.33673 2.19227 11.898C2.19108 13.9954 2.74047 16.0429 3.78209 17.8471L2.16666 23.8333L8.40257 22.36C10.1414 23.3086 12.0988 23.8065 14.0915 23.8077H14.0961C20.6569 23.8077 25.9964 18.4698 26 11.9097C26.0024 8.72913 24.7655 5.73875 22.5178 3.48888C20.2701 1.24021 17.2829 0.00119167 14.0985 0ZM14.0961 2.38333C16.6418 2.38453 19.0341 3.37694 20.8325 5.17397C22.6309 6.97339 23.6188 9.36434 23.6164 11.9074C23.614 17.1555 19.3448 21.4244 14.0938 21.4244C12.5052 21.4232 10.9315 21.0244 9.54548 20.2676L8.74242 19.8301L7.85556 20.0396L5.50924 20.5935L6.08186 18.4662L6.34023 17.5119L5.84676 16.6554C5.01489 15.2159 4.57464 13.57 4.57583 11.898C4.57822 6.65233 8.84871 2.38333 14.0961 2.38333ZM9.88532 6.40521C9.68629 6.40521 9.36449 6.47969 9.09157 6.7776C8.81866 7.07433 8.04876 7.793 8.04876 9.25636C8.04876 10.7197 9.11485 12.1343 9.26382 12.3333C9.41161 12.5311 11.3216 15.629 14.3452 16.8207C16.8575 17.8109 17.3677 17.6155 17.9136 17.5654C18.4594 17.5166 19.6745 16.8474 19.9224 16.1527C20.1703 15.4579 20.1708 14.8603 20.0969 14.7376C20.0231 14.6136 19.8246 14.5397 19.5267 14.3908C19.2299 14.2418 17.7675 13.5238 17.4946 13.4249C17.2217 13.326 17.022 13.2759 16.8242 13.5738C16.6264 13.8717 16.0578 14.5397 15.8838 14.7376C15.7098 14.9366 15.537 14.9633 15.239 14.8144C14.9411 14.6642 13.9831 14.3493 12.8462 13.3364C11.9619 12.5487 11.3652 11.5769 11.1912 11.2789C11.0184 10.9822 11.1749 10.8192 11.3238 10.6715C11.4573 10.538 11.6195 10.3241 11.7684 10.1501C11.9162 9.97613 11.9675 9.85218 12.0664 9.65436C12.1653 9.45655 12.1147 9.28197 12.0408 9.13301C11.9669 8.98405 11.3882 7.51525 11.1237 6.92656C10.9008 6.43202 10.6654 6.42053 10.4533 6.41219C10.2805 6.40504 10.0832 6.40521 9.88532 6.40521Z" fill="white"/>
</g>
<defs>
<clipPath id="clip0_266_158">
<rect width="26" height="26" fill="white"/>
</clipPath>
</defs>
</svg>
