<svg width="313" height="145" viewBox="0 0 313 145" fill="none" xmlns="http://www.w3.org/2000/svg">
<path d="M136.53 35.71C131.589 38.8669 127.086 42.6631 123.14 47L109.06 30.56C106.572 30.6543 104.099 30.1393 101.855 29.0598C99.612 27.9802 97.6663 26.3688 96.1877 24.3658C94.7091 22.3627 93.7423 20.0287 93.3715 17.5668C93.0007 15.1049 93.237 12.5897 94.06 10.24L101.06 18.4L110.79 17.91L112.79 8.38999L105.79 0.229985C108.388 -0.229883 111.061 -0.00954849 113.549 0.86956C116.037 1.74867 118.255 3.25663 119.987 5.24679C121.72 7.23696 122.908 9.64158 123.436 12.2268C123.964 14.8121 123.814 17.4899 123 20L136.53 35.71Z" fill="white"/>
<path d="M233.88 31.7299C232.666 34.0373 230.88 35.9945 228.693 37.4144C226.506 38.8343 223.992 39.6695 221.39 39.8399L212.46 56.8399C210.89 54.8944 208.922 53.3058 206.69 52.1799L197.42 47.8299L206.42 30.7299C205.422 28.4577 204.992 25.9764 205.168 23.5008C205.344 21.0252 206.12 18.6297 207.43 16.5214C208.74 14.4132 210.543 12.6558 212.685 11.401C214.826 10.1462 217.241 9.43196 219.72 9.31995L214.72 18.7899L218.72 27.6499L228.32 26.0199L233.32 16.5499C234.731 18.811 235.525 21.4021 235.623 24.0653C235.721 26.7286 235.12 29.3711 233.88 31.7299Z" fill="white"/>
<path d="M162.22 33.86L161.47 33.51C154.74 30.51 146.52 32.18 138.17 37.36L135 39.5L131 42.5L128 45L124.78 48.62C117.216 56.9157 110.979 66.33 106.29 76.53C104.03 81.3348 102.096 86.2859 100.5 91.35C102.09 91.06 103.7 90.78 105.32 90.52C106.665 86.3629 108.272 82.2948 110.13 78.34C122.72 51.48 144.08 34.88 158 41L158.65 41.3C165.97 44.94 169.65 54.42 169.45 66.59C169.286 73.3412 168.237 80.0416 166.33 86.52C167.84 86.52 169.33 86.61 170.85 86.67C173.18 78.9872 174.465 71.0257 174.67 63C174.84 49 170.65 38.06 162.22 33.86Z" fill="white"/>
<path d="M15.6 125.67H15.45C15.29 126.73 14.75 127.61 13.83 128.31C12.91 129.01 11.66 129.36 10.08 129.36C8.88 129.36 7.76 129.13 6.72 128.67C5.68 128.21 4.77 127.53 3.99 126.63C3.21 125.73 2.6 124.61 2.16 123.27C1.72 121.93 1.5 120.38 1.5 118.62C1.5 116.86 1.73 115.3 2.19 113.94C2.65 112.58 3.29 111.44 4.11 110.52C4.95 109.6 5.95 108.9 7.11 108.42C8.27 107.94 9.56 107.7 10.98 107.7C12.86 107.7 14.48 108.11 15.84 108.93C17.2 109.73 18.27 110.94 19.05 112.56L15.33 114.69C15.01 113.87 14.51 113.18 13.83 112.62C13.15 112.04 12.2 111.75 10.98 111.75C9.56 111.75 8.43 112.16 7.59 112.98C6.75 113.8 6.33 115.09 6.33 116.85V120.21C6.33 121.95 6.75 123.24 7.59 124.08C8.43 124.9 9.56 125.31 10.98 125.31C11.54 125.31 12.07 125.25 12.57 125.13C13.07 124.99 13.51 124.79 13.89 124.53C14.27 124.25 14.56 123.92 14.76 123.54C14.98 123.16 15.09 122.71 15.09 122.19V121.14H11.19V117.33H19.44V129H15.6V125.67ZM28.4325 129H23.8725V108.06H33.8025C34.7625 108.06 35.6325 108.22 36.4125 108.54C37.1925 108.86 37.8525 109.32 38.3925 109.92C38.9525 110.5 39.3825 111.2 39.6825 112.02C39.9825 112.84 40.1325 113.75 40.1325 114.75C40.1325 116.17 39.8125 117.41 39.1725 118.47C38.5525 119.53 37.6025 120.3 36.3225 120.78L40.4325 129H35.3625L31.7025 121.32H28.4325V129ZM33.2325 117.48C33.9125 117.48 34.4425 117.31 34.8225 116.97C35.2225 116.61 35.4225 116.09 35.4225 115.41V114.09C35.4225 113.41 35.2225 112.9 34.8225 112.56C34.4425 112.2 33.9125 112.02 33.2325 112.02H28.4325V117.48H33.2325ZM52.1944 129.36C50.8144 129.36 49.5544 129.13 48.4144 128.67C47.2744 128.21 46.3044 127.53 45.5044 126.63C44.7044 125.71 44.0844 124.58 43.6444 123.24C43.2044 121.88 42.9844 120.31 42.9844 118.53C42.9844 116.75 43.2044 115.19 43.6444 113.85C44.0844 112.49 44.7044 111.36 45.5044 110.46C46.3044 109.54 47.2744 108.85 48.4144 108.39C49.5544 107.93 50.8144 107.7 52.1944 107.7C53.5744 107.7 54.8344 107.93 55.9744 108.39C57.1144 108.85 58.0844 109.54 58.8844 110.46C59.6844 111.36 60.3044 112.49 60.7444 113.85C61.1844 115.19 61.4044 116.75 61.4044 118.53C61.4044 120.31 61.1844 121.88 60.7444 123.24C60.3044 124.58 59.6844 125.71 58.8844 126.63C58.0844 127.53 57.1144 128.21 55.9744 128.67C54.8344 129.13 53.5744 129.36 52.1944 129.36ZM52.1944 125.31C53.5744 125.31 54.6444 124.86 55.4044 123.96C56.1844 123.06 56.5744 121.77 56.5744 120.09V116.97C56.5744 115.29 56.1844 114 55.4044 113.1C54.6444 112.2 53.5744 111.75 52.1944 111.75C50.8144 111.75 49.7344 112.2 48.9544 113.1C48.1944 114 47.8144 115.29 47.8144 116.97V120.09C47.8144 121.77 48.1944 123.06 48.9544 123.96C49.7344 124.86 50.8144 125.31 52.1944 125.31ZM67.8073 129L63.0673 108.06H67.5673L69.5473 118.11L70.6573 123.93H70.7473L72.0673 118.11L74.3773 108.06H79.3573L81.6973 118.11L82.9873 123.93H83.0773L84.1873 118.11L86.1973 108.06H90.5173L85.6573 129H80.4673L77.8273 117.66L76.8073 113.07H76.7173L75.6673 117.66L73.0273 129H67.8073ZM93.687 129V108.06H103.587C104.567 108.06 105.447 108.23 106.227 108.57C107.007 108.89 107.667 109.34 108.207 109.92C108.767 110.5 109.197 111.21 109.497 112.05C109.797 112.87 109.947 113.77 109.947 114.75C109.947 115.75 109.797 116.66 109.497 117.48C109.197 118.3 108.767 119 108.207 119.58C107.667 120.16 107.007 120.62 106.227 120.96C105.447 121.28 104.567 121.44 103.587 121.44H98.247V129H93.687ZM98.247 117.48H103.047C103.727 117.48 104.257 117.31 104.637 116.97C105.037 116.61 105.237 116.09 105.237 115.41V114.09C105.237 113.41 105.037 112.9 104.637 112.56C104.257 112.2 103.727 112.02 103.047 112.02H98.247V117.48ZM113.374 129V108.06H127.624V112.11H117.934V116.4H126.244V120.42H117.934V124.95H127.624V129H113.374ZM136.157 129H131.597V108.06H141.527C142.487 108.06 143.357 108.22 144.137 108.54C144.917 108.86 145.577 109.32 146.117 109.92C146.677 110.5 147.107 111.2 147.407 112.02C147.707 112.84 147.857 113.75 147.857 114.75C147.857 116.17 147.537 117.41 146.897 118.47C146.277 119.53 145.327 120.3 144.047 120.78L148.157 129H143.087L139.427 121.32H136.157V129ZM140.957 117.48C141.637 117.48 142.167 117.31 142.547 116.97C142.947 116.61 143.147 116.09 143.147 115.41V114.09C143.147 113.41 142.947 112.9 142.547 112.56C142.167 112.2 141.637 112.02 140.957 112.02H136.157V117.48H140.957ZM151.812 129V108.06H165.702V112.11H156.372V116.4H164.322V120.42H156.372V129H151.812ZM176.853 129.36C175.473 129.36 174.213 129.13 173.073 128.67C171.933 128.21 170.963 127.53 170.163 126.63C169.363 125.71 168.743 124.58 168.303 123.24C167.863 121.88 167.643 120.31 167.643 118.53C167.643 116.75 167.863 115.19 168.303 113.85C168.743 112.49 169.363 111.36 170.163 110.46C170.963 109.54 171.933 108.85 173.073 108.39C174.213 107.93 175.473 107.7 176.853 107.7C178.233 107.7 179.493 107.93 180.633 108.39C181.773 108.85 182.743 109.54 183.543 110.46C184.343 111.36 184.963 112.49 185.403 113.85C185.843 115.19 186.063 116.75 186.063 118.53C186.063 120.31 185.843 121.88 185.403 123.24C184.963 124.58 184.343 125.71 183.543 126.63C182.743 127.53 181.773 128.21 180.633 128.67C179.493 129.13 178.233 129.36 176.853 129.36ZM176.853 125.31C178.233 125.31 179.303 124.86 180.063 123.96C180.843 123.06 181.233 121.77 181.233 120.09V116.97C181.233 115.29 180.843 114 180.063 113.1C179.303 112.2 178.233 111.75 176.853 111.75C175.473 111.75 174.393 112.2 173.613 113.1C172.853 114 172.473 115.29 172.473 116.97V120.09C172.473 121.77 172.853 123.06 173.613 123.96C174.393 124.86 175.473 125.31 176.853 125.31ZM194.429 129H189.869V108.06H199.799C200.759 108.06 201.629 108.22 202.409 108.54C203.189 108.86 203.849 109.32 204.389 109.92C204.949 110.5 205.379 111.2 205.679 112.02C205.979 112.84 206.129 113.75 206.129 114.75C206.129 116.17 205.809 117.41 205.169 118.47C204.549 119.53 203.599 120.3 202.319 120.78L206.429 129H201.359L197.699 121.32H194.429V129ZM199.229 117.48C199.909 117.48 200.439 117.31 200.819 116.97C201.219 116.61 201.419 116.09 201.419 115.41V114.09C201.419 113.41 201.219 112.9 200.819 112.56C200.439 112.2 199.909 112.02 199.229 112.02H194.429V117.48H199.229ZM225.743 115.26H225.653L224.123 118.32L220.043 125.73L216.053 118.35L214.463 115.05H214.373V129H210.083V108.06H214.913L220.043 117.87H220.103L225.173 108.06H230.033V129H225.743V115.26ZM247.564 129L246.064 124.02H239.074L237.574 129H232.954L239.854 108.06H245.494L252.304 129H247.564ZM242.614 112.2H242.464L240.154 120.15H244.954L242.614 112.2ZM261.591 119.1L259.581 114.9H259.491V129H255.201V108.06H260.181L265.911 117.96L267.921 122.16H268.011V108.06H272.301V129H267.321L261.591 119.1ZM285.37 129.36C283.95 129.36 282.67 129.14 281.53 128.7C280.39 128.24 279.42 127.57 278.62 126.69C277.82 125.79 277.2 124.68 276.76 123.36C276.32 122.02 276.1 120.46 276.1 118.68C276.1 116.92 276.32 115.36 276.76 114C277.2 112.62 277.82 111.47 278.62 110.55C279.42 109.61 280.39 108.9 281.53 108.42C282.67 107.94 283.95 107.7 285.37 107.7C287.31 107.7 288.91 108.1 290.17 108.9C291.43 109.68 292.44 110.92 293.2 112.62L289.27 114.66C288.99 113.78 288.55 113.08 287.95 112.56C287.37 112.02 286.51 111.75 285.37 111.75C284.03 111.75 282.95 112.19 282.13 113.07C281.33 113.93 280.93 115.19 280.93 116.85V120.21C280.93 121.87 281.33 123.14 282.13 124.02C282.95 124.88 284.03 125.31 285.37 125.31C286.49 125.31 287.38 125.01 288.04 124.41C288.72 123.79 289.22 123.05 289.54 122.19L293.26 124.35C292.48 125.95 291.45 127.19 290.17 128.07C288.91 128.93 287.31 129.36 285.37 129.36ZM296.451 129V108.06H310.701V112.11H301.011V116.4H309.321V120.42H301.011V124.95H310.701V129H296.451Z" fill="white"/>
<path d="M111.84 89.08C112.859 86.2555 114.038 83.4911 115.37 80.8L115.29 81.15V80.95L115.36 80.8C118.287 74.8352 121.985 69.281 126.36 64.28C128.554 61.7958 130.982 59.5287 133.61 57.51C136.224 55.4825 139.139 53.8764 142.25 52.75C139.209 53.9967 136.382 55.7107 133.87 57.83C131.351 59.9339 129.044 62.2783 126.98 64.83C122.883 69.9209 119.473 75.5291 116.84 81.51L116.92 81.17V81.33L116.84 81.52C115.649 84.199 114.61 86.9434 113.73 89.74L111.84 89.08Z" fill="white"/>
<path d="M144.35 84C144.334 84.9087 144.247 85.8148 144.09 86.71C139.25 86.8967 134.467 87.19 129.74 87.59L128.41 87.7C128.49 87.5 128.58 87.29 128.68 87.09C132.01 80 137.68 75.61 141.33 77.23L141.5 77.31C143.43 78.23 144.39 80.73 144.35 84Z" fill="white"/>
<path d="M211.56 59L210.87 60.31C206.118 56.8735 200.933 54.0793 195.45 52L196.52 50L205.79 54.35C208.022 55.4729 209.988 57.0581 211.56 59Z" fill="white"/>
<path d="M217.6 92.09C203.209 89.3089 188.639 87.5545 174 86.84C173 86.78 171.93 86.74 170.89 86.69C173.208 78.9989 174.48 71.0306 174.67 63C174.84 49 170.67 38.05 162.22 33.85L174.54 39.63L196.54 49.94L195.47 51.94C200.951 54.0068 206.136 56.7875 210.89 60.21L211.58 58.9C217.34 66 219.39 78 217.6 92.09Z" fill="white"/>
<path d="M244.28 97.72C237.05 96.03 229.79 94.56 222.46 93.47C215.13 92.38 207.81 91.47 200.46 90.72C185.74 89.32 170.95 88.66 156.17 88.72C148.77 88.72 141.38 88.88 134 89.22C126.62 89.56 119.23 90.07 111.87 90.73C104.51 91.39 97.15 92.29 89.87 93.4C82.59 94.51 75.26 95.83 68 97.4C82.2611 93.1519 96.8618 90.1408 111.64 88.4C119.03 87.46 126.45 86.85 133.88 86.4C141.31 85.95 148.75 85.76 156.19 85.74C163.63 85.72 171.08 85.95 178.51 86.38C185.94 86.81 193.36 87.47 200.75 88.43C215.519 90.1586 230.092 93.2689 244.28 97.72Z" fill="white"/>
</svg>
