<svg width="377" height="151" viewBox="0 0 377 151" fill="none" xmlns="http://www.w3.org/2000/svg">
<g clip-path="url(#clip0_263_192)">
<path d="M166.67 35.6203C161.162 38.7693 156.144 42.556 151.745 46.882L136.051 30.4833C133.278 30.5774 130.521 30.0636 128.021 28.9868C125.52 27.9099 123.352 26.3026 121.703 24.3046C120.055 22.3066 118.978 19.9784 118.564 17.5227C118.151 15.067 118.414 12.5581 119.332 10.2143L127.134 18.3538L137.98 17.865L140.209 8.36891L132.406 0.229397C135.302 -0.229316 138.282 -0.00953463 141.055 0.867367C143.828 1.74427 146.3 3.24844 148.231 5.23361C150.162 7.21878 151.486 9.61737 152.075 12.1961C152.663 14.7749 152.496 17.446 151.589 19.9498L166.67 35.6203Z" fill="white"/>
<path d="M275.179 31.6504C273.825 33.9519 271.835 35.9042 269.397 37.3206C266.96 38.7369 264.157 39.57 261.257 39.74L251.304 56.6973C249.553 54.7567 247.361 53.1721 244.872 52.049L234.54 47.71L244.571 30.6529C243.459 28.3863 242.98 25.9113 243.176 23.4419C243.372 20.9725 244.237 18.583 245.697 16.48C247.157 14.3771 249.167 12.6241 251.554 11.3725C253.941 10.1208 256.632 9.40837 259.396 9.29663L253.823 18.7429L258.281 27.5806L268.982 25.9547L274.555 16.5085C276.127 18.7638 277.012 21.3484 277.122 24.005C277.231 26.6615 276.561 29.2975 275.179 31.6504V31.6504Z" fill="white"/>
<path d="M195.305 33.775L194.469 33.4258C186.967 30.4334 177.805 32.0992 168.498 37.2662L164.965 39.4008L160.506 42.3933L157.162 44.887L153.573 48.4979C145.142 56.7727 138.19 66.1635 132.964 76.3379C130.445 81.1306 128.289 86.0693 126.51 91.1206C128.282 90.8314 130.077 90.5521 131.883 90.2927C133.382 86.146 135.173 82.0881 137.244 78.1433C151.277 51.3507 175.085 34.7924 190.601 40.897L191.326 41.1963C199.485 44.8272 203.586 54.2834 203.363 66.4228C203.18 73.157 202.011 79.8406 199.886 86.3028C201.569 86.3028 203.23 86.3925 204.924 86.4524C207.521 78.7889 208.953 70.8474 209.182 62.8418C209.371 48.877 204.701 37.9644 195.305 33.775Z" fill="white"/>
<path d="M35.2 132.115H35.025C34.8383 133.352 34.2083 134.378 33.135 135.195C32.0617 136.012 30.6033 136.42 28.76 136.42C27.36 136.42 26.0533 136.152 24.84 135.615C23.6267 135.078 22.565 134.285 21.655 133.235C20.745 132.185 20.0333 130.878 19.52 129.315C19.0067 127.752 18.75 125.943 18.75 123.89C18.75 121.837 19.0183 120.017 19.555 118.43C20.0917 116.843 20.8383 115.513 21.795 114.44C22.775 113.367 23.9417 112.55 25.295 111.99C26.6483 111.43 28.1533 111.15 29.81 111.15C32.0033 111.15 33.8933 111.628 35.48 112.585C37.0667 113.518 38.315 114.93 39.225 116.82L34.885 119.305C34.5117 118.348 33.9283 117.543 33.135 116.89C32.3417 116.213 31.2333 115.875 29.81 115.875C28.1533 115.875 26.835 116.353 25.855 117.31C24.875 118.267 24.385 119.772 24.385 121.825V125.745C24.385 127.775 24.875 129.28 25.855 130.26C26.835 131.217 28.1533 131.695 29.81 131.695C30.4633 131.695 31.0817 131.625 31.665 131.485C32.2483 131.322 32.7617 131.088 33.205 130.785C33.6483 130.458 33.9867 130.073 34.22 129.63C34.4767 129.187 34.605 128.662 34.605 128.055V126.83H30.055V122.385H39.68V136H35.2V132.115ZM54.6513 136.42C53.0413 136.42 51.5713 136.152 50.2413 135.615C48.9113 135.078 47.7796 134.285 46.8463 133.235C45.9129 132.162 45.1896 130.843 44.6763 129.28C44.1629 127.693 43.9063 125.862 43.9063 123.785C43.9063 121.708 44.1629 119.888 44.6763 118.325C45.1896 116.738 45.9129 115.42 46.8463 114.37C47.7796 113.297 48.9113 112.492 50.2413 111.955C51.5713 111.418 53.0413 111.15 54.6513 111.15C56.2613 111.15 57.7313 111.418 59.0613 111.955C60.3913 112.492 61.5229 113.297 62.4563 114.37C63.3896 115.42 64.1129 116.738 64.6263 118.325C65.1396 119.888 65.3963 121.708 65.3963 123.785C65.3963 125.862 65.1396 127.693 64.6263 129.28C64.1129 130.843 63.3896 132.162 62.4563 133.235C61.5229 134.285 60.3913 135.078 59.0613 135.615C57.7313 136.152 56.2613 136.42 54.6513 136.42ZM54.6513 131.695C56.2613 131.695 57.5096 131.17 58.3963 130.12C59.3063 129.07 59.7613 127.565 59.7613 125.605V121.965C59.7613 120.005 59.3063 118.5 58.3963 117.45C57.5096 116.4 56.2613 115.875 54.6513 115.875C53.0413 115.875 51.7813 116.4 50.8713 117.45C49.9846 118.5 49.5413 120.005 49.5413 121.965V125.605C49.5413 127.565 49.9846 129.07 50.8713 130.12C51.7813 131.17 53.0413 131.695 54.6513 131.695ZM72.8663 136L67.3363 111.57H72.5863L74.8963 123.295L76.1913 130.085H76.2963L77.8363 123.295L80.5313 111.57H86.3413L89.0713 123.295L90.5763 130.085H90.6813L91.9763 123.295L94.3213 111.57H99.3613L93.6913 136H87.6363L84.5563 122.77L83.3663 117.415H83.2613L82.0363 122.77L78.9563 136H72.8663ZM103.059 136V111.57H114.609C115.753 111.57 116.779 111.768 117.689 112.165C118.599 112.538 119.369 113.063 119.999 113.74C120.653 114.417 121.154 115.245 121.504 116.225C121.854 117.182 122.029 118.232 122.029 119.375C122.029 120.542 121.854 121.603 121.504 122.56C121.154 123.517 120.653 124.333 119.999 125.01C119.369 125.687 118.599 126.223 117.689 126.62C116.779 126.993 115.753 127.18 114.609 127.18H108.379V136H103.059ZM108.379 122.56H113.979C114.773 122.56 115.391 122.362 115.834 121.965C116.301 121.545 116.534 120.938 116.534 120.145V118.605C116.534 117.812 116.301 117.217 115.834 116.82C115.391 116.4 114.773 116.19 113.979 116.19H108.379V122.56ZM126.028 136V111.57H142.653V116.295H131.348V121.3H141.043V125.99H131.348V131.275H142.653V136H126.028ZM152.608 136H147.288V111.57H158.873C159.993 111.57 161.008 111.757 161.918 112.13C162.828 112.503 163.598 113.04 164.228 113.74C164.881 114.417 165.383 115.233 165.733 116.19C166.083 117.147 166.258 118.208 166.258 119.375C166.258 121.032 165.884 122.478 165.138 123.715C164.414 124.952 163.306 125.85 161.813 126.41L166.608 136H160.693L156.423 127.04H152.608V136ZM158.208 122.56C159.001 122.56 159.619 122.362 160.063 121.965C160.529 121.545 160.763 120.938 160.763 120.145V118.605C160.763 117.812 160.529 117.217 160.063 116.82C159.619 116.4 159.001 116.19 158.208 116.19H152.608V122.56H158.208ZM170.872 136V111.57H187.077V116.295H176.192V121.3H185.467V125.99H176.192V136H170.872ZM200.086 136.42C198.476 136.42 197.006 136.152 195.676 135.615C194.346 135.078 193.214 134.285 192.281 133.235C191.347 132.162 190.624 130.843 190.111 129.28C189.597 127.693 189.341 125.862 189.341 123.785C189.341 121.708 189.597 119.888 190.111 118.325C190.624 116.738 191.347 115.42 192.281 114.37C193.214 113.297 194.346 112.492 195.676 111.955C197.006 111.418 198.476 111.15 200.086 111.15C201.696 111.15 203.166 111.418 204.496 111.955C205.826 112.492 206.957 113.297 207.891 114.37C208.824 115.42 209.547 116.738 210.061 118.325C210.574 119.888 210.831 121.708 210.831 123.785C210.831 125.862 210.574 127.693 210.061 129.28C209.547 130.843 208.824 132.162 207.891 133.235C206.957 134.285 205.826 135.078 204.496 135.615C203.166 136.152 201.696 136.42 200.086 136.42ZM200.086 131.695C201.696 131.695 202.944 131.17 203.831 130.12C204.741 129.07 205.196 127.565 205.196 125.605V121.965C205.196 120.005 204.741 118.5 203.831 117.45C202.944 116.4 201.696 115.875 200.086 115.875C198.476 115.875 197.216 116.4 196.306 117.45C195.419 118.5 194.976 120.005 194.976 121.965V125.605C194.976 127.565 195.419 129.07 196.306 130.12C197.216 131.17 198.476 131.695 200.086 131.695ZM220.591 136H215.271V111.57H226.856C227.976 111.57 228.991 111.757 229.901 112.13C230.811 112.503 231.581 113.04 232.211 113.74C232.865 114.417 233.366 115.233 233.716 116.19C234.066 117.147 234.241 118.208 234.241 119.375C234.241 121.032 233.868 122.478 233.121 123.715C232.398 124.952 231.29 125.85 229.796 126.41L234.591 136H228.676L224.406 127.04H220.591V136ZM226.191 122.56C226.985 122.56 227.603 122.362 228.046 121.965C228.513 121.545 228.746 120.938 228.746 120.145V118.605C228.746 117.812 228.513 117.217 228.046 116.82C227.603 116.4 226.985 116.19 226.191 116.19H220.591V122.56H226.191ZM257.125 119.97H257.02L255.235 123.54L250.475 132.185L245.82 123.575L243.965 119.725H243.86V136H238.855V111.57H244.49L250.475 123.015H250.545L256.46 111.57H262.13V136H257.125V119.97ZM282.582 136L280.832 130.19H272.677L270.927 136H265.537L273.587 111.57H280.167L288.112 136H282.582ZM276.807 116.4H276.632L273.937 125.675H279.537L276.807 116.4ZM298.947 124.45L296.602 119.55H296.497V136H291.492V111.57H297.302L303.987 123.12L306.332 128.02H306.437V111.57H311.442V136H305.632L298.947 124.45ZM326.689 136.42C325.032 136.42 323.539 136.163 322.209 135.65C320.879 135.113 319.747 134.332 318.814 133.305C317.881 132.255 317.157 130.96 316.644 129.42C316.131 127.857 315.874 126.037 315.874 123.96C315.874 121.907 316.131 120.087 316.644 118.5C317.157 116.89 317.881 115.548 318.814 114.475C319.747 113.378 320.879 112.55 322.209 111.99C323.539 111.43 325.032 111.15 326.689 111.15C328.952 111.15 330.819 111.617 332.289 112.55C333.759 113.46 334.937 114.907 335.824 116.89L331.239 119.27C330.912 118.243 330.399 117.427 329.699 116.82C329.022 116.19 328.019 115.875 326.689 115.875C325.126 115.875 323.866 116.388 322.909 117.415C321.976 118.418 321.509 119.888 321.509 121.825V125.745C321.509 127.682 321.976 129.163 322.909 130.19C323.866 131.193 325.126 131.695 326.689 131.695C327.996 131.695 329.034 131.345 329.804 130.645C330.597 129.922 331.181 129.058 331.554 128.055L335.894 130.575C334.984 132.442 333.782 133.888 332.289 134.915C330.819 135.918 328.952 136.42 326.689 136.42ZM339.617 136V111.57H356.242V116.295H344.937V121.3H354.632V125.99H344.937V131.275H356.242V136H339.617Z" fill="white"/>
<path d="M139.15 88.8564C140.286 86.039 141.6 83.2815 143.085 80.5971L142.995 80.9463V80.7468L143.073 80.5971C146.336 74.6473 150.458 69.107 155.334 64.1186C157.779 61.6406 160.486 59.3792 163.415 57.3656C166.329 55.3432 169.579 53.7411 173.046 52.6176C169.656 53.8611 166.505 55.5708 163.705 57.6848C160.898 59.7834 158.326 62.122 156.025 64.6672C151.458 69.7454 147.658 75.3395 144.723 81.3054L144.812 80.9662V81.1258L144.723 81.3153C143.395 83.9876 142.238 86.7251 141.257 89.5147L139.15 88.8564Z" fill="white"/>
<path d="M175.386 83.7891C175.368 84.6955 175.271 85.5993 175.097 86.4923C169.702 86.6785 164.37 86.971 159.102 87.37L157.619 87.4798C157.708 87.2803 157.809 87.0708 157.92 86.8713C161.632 79.7991 167.952 75.4201 172.02 77.0361L172.21 77.1159C174.361 78.0335 175.431 80.5273 175.386 83.7891Z" fill="white"/>
<path d="M250.3 58.8519L249.531 60.1586C244.235 56.7307 238.456 53.9436 232.344 51.8695L233.536 49.8745L243.869 54.2136C246.356 55.3337 248.549 56.9149 250.3 58.8519V58.8519Z" fill="white"/>
<path d="M257.033 91.8588C240.993 89.0848 224.752 87.3348 208.435 86.622C207.32 86.5621 206.128 86.5223 204.969 86.4724C207.552 78.8006 208.97 70.8523 209.182 62.8418C209.371 48.877 204.723 37.9545 195.305 33.765L209.037 39.5305L233.559 49.8146L232.366 51.8096C238.476 53.8713 244.255 56.6449 249.554 60.0588L250.323 58.7521C256.743 65.8343 259.028 77.8042 257.033 91.8588Z" fill="white"/>
<path d="M286.771 97.4747C278.712 95.7889 270.62 94.3226 262.45 93.2354C254.28 92.1481 246.121 91.2404 237.928 90.4923C221.521 89.0958 205.035 88.4374 188.561 88.4973C180.313 88.4973 172.076 88.6569 163.85 88.996C155.624 89.3352 147.387 89.8439 139.183 90.5022C130.98 91.1606 122.776 92.0583 114.662 93.1655C106.547 94.2727 98.3769 95.5894 90.2847 97.1555C106.18 92.9181 122.455 89.9145 138.927 88.1781C147.164 87.2404 155.435 86.632 163.716 86.1831C171.998 85.7342 180.291 85.5447 188.584 85.5248C196.876 85.5048 205.18 85.7342 213.462 86.1632C221.744 86.5921 230.014 87.2504 238.251 88.208C254.713 89.9323 270.957 93.0348 286.771 97.4747V97.4747Z" fill="white"/>
</g>
<defs>
<clipPath id="clip0_263_192">
<rect width="377" height="151" fill="white"/>
</clipPath>
</defs>
</svg>
