<svg xmlns="http://www.w3.org/2000/svg" viewBox="0 0 338.23 151.38"><defs><style>.cls-1,.cls-3{fill:#fff;}.cls-2{fill:none;}.cls-3{font-size:40px;font-family:LetterGothicStd-Slanted, Letter Gothic Std;font-style:oblique;}</style></defs><g id="Layer_2" data-name="Layer 2"><g id="Layer_3" data-name="Layer 3"><path class="cls-1" d="M149.53,35.71A66.54,66.54,0,0,0,136.14,47L122.06,30.56a15.28,15.28,0,0,1-15-20.32l7,8.16,9.73-.49,2-9.52-7-8.16A15.29,15.29,0,0,1,136,20Z"/><path class="cls-1" d="M246.88,31.73a15.24,15.24,0,0,1-12.49,8.11l-8.93,17a17.6,17.6,0,0,0-5.77-4.66l-9.27-4.35,9-17.1A15.28,15.28,0,0,1,232.72,9.32l-5,9.47,4,8.86,9.6-1.63,5-9.47A15.26,15.26,0,0,1,246.88,31.73Z"/><path class="cls-1" d="M175.22,33.86l-.75-.35c-6.73-3-14.95-1.33-23.3,3.85l.41.48L138.3,49.23l-.52-.61a109,109,0,0,0-18.49,27.91h0a118.55,118.55,0,0,0-5.79,14.82c1.59-.29,3.2-.57,4.82-.83a103.83,103.83,0,0,1,4.81-12.18h0C135.72,51.48,157.08,34.88,171,41l.65.3c7.32,3.64,11,13.12,10.8,25.29a77.25,77.25,0,0,1-3.12,19.93c1.51,0,3,.09,4.52.15A89.44,89.44,0,0,0,187.67,63C187.84,49,183.65,38.06,175.22,33.86Z"/><path class="cls-1" d="M124.84,89.08a79.48,79.48,0,0,1,3.53-8.28l-.08.35h0v-.2l.07-.15a75.83,75.83,0,0,1,11-16.52,51.61,51.61,0,0,1,7.25-6.77,31.72,31.72,0,0,1,8.64-4.76,31.56,31.56,0,0,0-8.38,5.08,50.5,50.5,0,0,0-6.89,7,74.46,74.46,0,0,0-10.14,16.68l.08-.34h0v.16l-.08.19a77.52,77.52,0,0,0-3.11,8.22Z"/><path class="cls-1" d="M157.35,84a17.57,17.57,0,0,1-.26,2.71q-7.26.28-14.35.88l-1.33.11c.08-.2.17-.41.27-.61,3.33-7.09,9-11.48,12.65-9.86l.17.08C156.43,78.23,157.39,80.73,157.35,84Z"/><path class="cls-1" d="M224.56,59l-.69,1.31A66.63,66.63,0,0,0,208.45,52l1.07-2,9.27,4.35A17.6,17.6,0,0,1,224.56,59Z"/><path class="cls-1" d="M230.6,92.09A309.24,309.24,0,0,0,187,86.84c-1-.06-2.07-.1-3.11-.15A89.44,89.44,0,0,0,187.67,63c.17-14-4-24.95-12.45-29.15l12.32,5.78,22,10.31-1.07,2a66.63,66.63,0,0,1,15.42,8.27l.69-1.31C230.34,66,232.39,78,230.6,92.09Z"/><line class="cls-2" x1="147.98" y1="89.99" x2="121.18" y2="77.43"/><path class="cls-1" d="M257.28,97.72c-7.23-1.69-14.49-3.16-21.82-4.25s-14.65-2-22-2.75c-14.72-1.4-29.51-2.06-44.29-2-7.4,0-14.79.16-22.17.5s-14.77.85-22.13,1.51-14.72,1.56-22,2.67-14.61,2.43-21.87,4a259,259,0,0,1,43.64-9c7.39-.94,14.81-1.55,22.24-2s14.87-.64,22.31-.66,14.89.21,22.32.64,14.85,1.09,22.24,2.05A237.75,237.75,0,0,1,257.28,97.72Z"/><path class="cls-1" d="M151.58,37.84,138.3,49.23l-.52-.61a66.54,66.54,0,0,1,13.39-11.26Z"/><text class="cls-3" transform="translate(0 139.86)">GOWPERFORMANCE</text></g></g></svg>