<svg width="245" height="121" viewBox="0 0 245 121" fill="none" xmlns="http://www.w3.org/2000/svg">
<path d="M198.912 73.0577L197.957 74.6797C191.382 70.4247 184.209 66.965 176.622 64.3904L178.103 61.9141L190.928 67.3001C194.016 68.6905 196.737 70.6532 198.912 73.0577Z" fill="black"/>
<path d="M95.1015 44.2204C88.2648 48.1292 82.0355 52.8296 76.5754 58.1995L57.0945 37.8438C53.6523 37.9606 50.2304 37.3229 47.1264 35.9862C44.0224 34.6495 41.3304 32.6543 39.2846 30.1742C37.2388 27.6941 35.9012 24.8042 35.3882 21.7559C34.8751 18.7076 35.2021 15.5933 36.3408 12.6839L46.0259 22.7875L59.4881 22.1808L62.2553 10.3933L52.5702 0.289751C56.1651 -0.279649 59.8634 -0.00683496 63.3055 1.08166C66.7476 2.17016 69.8164 4.03728 72.2134 6.50146C74.6104 8.96565 76.254 11.943 76.9844 15.144C77.7149 18.345 77.5072 21.6607 76.3817 24.7686L95.1015 44.2204Z" fill="black"/>
<path d="M229.793 39.2925C228.113 42.1494 225.642 44.5728 222.617 46.3309C219.591 48.0891 216.112 49.1231 212.512 49.3342L200.157 70.3833C197.984 67.9743 195.262 66.0073 192.174 64.6133L179.348 59.2273L191.8 38.0544C190.419 35.2409 189.824 32.1686 190.068 29.1034C190.311 26.0381 191.386 23.072 193.198 20.4617C195.01 17.8513 197.505 15.6753 200.467 14.1216C203.43 12.568 206.771 11.6836 210.202 11.5449L203.284 23.2705L208.818 34.2408L222.1 32.2225L229.018 20.497C230.97 23.2965 232.069 26.5048 232.205 29.8024C232.341 33.0999 231.509 36.3719 229.793 39.2925Z" fill="black"/>
<path d="M130.646 41.9297L129.608 41.4964C120.297 37.7818 108.924 39.8496 97.3706 46.2634L92.9847 48.913L87.4503 52.6276L83.2996 55.723L78.8445 60.2053C68.3793 70.4768 59.75 82.1335 53.262 94.7629C50.1356 100.712 47.4592 106.842 45.2511 113.113C47.451 112.754 49.6786 112.407 51.92 112.085C53.7815 106.938 56.0043 101.901 58.575 97.004C75.9943 63.7465 105.548 43.1927 124.807 50.7703L125.706 51.1418C135.834 55.6488 140.926 67.3867 140.649 82.4554C140.422 90.8145 138.97 99.1109 136.332 107.132C138.421 107.132 140.483 107.244 142.586 107.318C145.81 97.8053 147.587 87.9476 147.871 78.0103C148.107 60.6758 142.309 47.1301 130.646 41.9297Z" fill="black"/>
<path d="M60.9409 110.302C62.3512 106.805 63.9818 103.382 65.825 100.05L65.7143 100.483V100.236L65.8111 100.05C69.861 92.6644 74.9779 85.7873 81.0305 79.5952C84.0657 76.5193 87.4248 73.7122 91.0615 71.2127C94.6784 68.7023 98.7119 66.7137 103.016 65.319C98.8085 66.8626 94.8965 68.9848 91.4212 71.6089C87.9364 74.214 84.7437 77.1168 81.8883 80.2762C76.2194 86.5797 71.5023 93.5236 67.8588 100.929L67.9695 100.508V100.706L67.8588 100.941C66.2106 104.258 64.774 107.657 63.5559 111.119L60.9409 110.302Z" fill="black"/>
<path d="M105.921 104.012C105.898 105.137 105.778 106.259 105.561 107.367C98.8648 107.599 92.2467 107.962 85.707 108.457L83.8668 108.593C83.9775 108.346 84.102 108.086 84.2404 107.838C88.8477 99.0593 96.6926 93.6237 101.743 95.6295L101.978 95.7286C104.648 96.8677 105.976 99.9632 105.921 104.012Z" fill="black"/>
<path d="M207.269 114.029C187.358 110.586 167.199 108.413 146.944 107.529C145.561 107.454 144.08 107.405 142.641 107.343C145.849 97.82 147.608 87.9538 147.871 78.0104C148.107 60.6759 142.337 47.1178 130.646 41.9175L147.691 49.0742L178.13 61.8398L176.65 64.3162C184.234 66.8753 191.407 70.3182 197.985 74.5559L198.939 72.9339C206.909 81.725 209.745 96.5831 207.269 114.029Z" fill="black"/>
<path d="M244.182 121C234.179 118.907 224.134 117.087 213.993 115.738C203.851 114.388 193.723 113.261 183.554 112.333C163.188 110.599 142.724 109.782 122.275 109.856C112.037 109.856 101.812 110.054 91.601 110.475C81.3902 110.896 71.1655 111.528 60.9824 112.345C50.7992 113.162 40.6161 114.277 30.5436 115.651C20.4711 117.025 10.3295 118.66 0.284668 120.604C20.0161 115.344 40.2173 111.616 60.6642 109.46C70.8888 108.296 81.155 107.541 91.435 106.984C101.715 106.427 112.009 106.191 122.303 106.167C132.597 106.142 142.904 106.427 153.184 106.959C163.464 107.491 173.73 108.309 183.955 109.497C204.389 111.638 224.553 115.489 244.182 121Z" fill="black"/>
</svg>
