<svg width="28" height="25" viewBox="0 0 28 25" fill="none" xmlns="http://www.w3.org/2000/svg">
<path d="M8.34922 10.4916C8.52631 10.6164 9.06015 10.9872 9.95076 11.6036C10.8414 12.22 11.5237 12.6947 11.9977 13.0275C12.0497 13.064 12.1604 13.1433 12.3296 13.2656C12.4989 13.3879 12.6395 13.4868 12.7514 13.5622C12.8634 13.6376 12.9988 13.7221 13.1578 13.8158C13.3166 13.9093 13.4664 13.9796 13.607 14.0262C13.7477 14.0732 13.8779 14.0964 13.9976 14.0964H14.0055H14.0134C14.1331 14.0964 14.2634 14.0731 14.404 14.0262C14.5446 13.9796 14.6945 13.9092 14.8532 13.8158C15.0121 13.722 15.1475 13.6376 15.2595 13.5622C15.3715 13.4868 15.512 13.3879 15.6813 13.2656C15.8505 13.1432 15.9613 13.064 16.0134 13.0275C16.4925 12.6947 17.7113 11.8493 19.6696 10.4914C20.0498 10.2262 20.3674 9.90625 20.6226 9.53167C20.878 9.15725 21.0055 8.76447 21.0055 8.35354C21.0055 8.01015 20.8817 7.7162 20.6343 7.47172C20.3869 7.22718 20.0939 7.10498 19.7555 7.10498H8.25544C7.85443 7.10498 7.54582 7.24022 7.32967 7.51069C7.11355 7.78122 7.00549 8.11936 7.00549 8.5251C7.00549 8.85283 7.14877 9.20798 7.43519 9.59032C7.72157 9.97269 8.02635 10.2731 8.34922 10.4916Z" fill="white"/>
<path d="M20.2241 11.3426C18.516 12.4968 17.2189 13.3939 16.3336 14.0335C16.0368 14.2518 15.7959 14.4222 15.611 14.5443C15.426 14.6665 15.1801 14.7913 14.8727 14.9187C14.5655 15.0462 14.2791 15.1098 14.0135 15.1098H14.0055H13.9977C13.732 15.1098 13.4455 15.0462 13.1383 14.9187C12.8311 14.7913 12.5849 14.6665 12.4 14.5443C12.2152 14.4222 11.9743 14.2518 11.6774 14.0335C10.9743 13.5188 9.68002 12.6217 7.79463 11.3426C7.49768 11.1451 7.23466 10.9188 7.00549 10.6641V16.8568C7.00549 17.2002 7.12784 17.4938 7.37266 17.7382C7.61743 17.9827 7.91175 18.1049 8.25552 18.1049H19.7555C20.0992 18.1049 20.3935 17.9827 20.6383 17.7382C20.8832 17.4937 21.0055 17.2002 21.0055 16.8568V10.6641C20.7815 10.9135 20.5212 11.1399 20.2241 11.3426Z" fill="white"/>
<path d="M27.5 12.5C27.5 19.0756 21.5106 24.5 14 24.5C6.48937 24.5 0.5 19.0756 0.5 12.5C0.5 5.92436 6.48937 0.5 14 0.5C21.5106 0.5 27.5 5.92436 27.5 12.5Z" stroke="#DADADA"/>
</svg>
