<svg width="28" height="25" viewBox="0 0 28 25" fill="none" xmlns="http://www.w3.org/2000/svg">
<path d="M21.9843 15.682C21.9418 15.5683 21.6717 15.4007 21.1741 15.1798C21.0393 15.1101 20.8472 15.0155 20.5986 14.8954C20.3499 14.7753 20.124 14.6647 19.9216 14.5636C19.7188 14.4625 19.5287 14.3646 19.3512 14.2699C19.3228 14.251 19.234 14.1958 19.0847 14.1039C18.9353 14.0124 18.8093 13.9444 18.706 13.9001C18.603 13.8561 18.5017 13.8339 18.4021 13.8339C18.26 13.8339 18.0825 13.924 17.8693 14.1039C17.6562 14.2841 17.4607 14.4799 17.2831 14.6917C17.1054 14.9035 16.917 15.0992 16.7182 15.2793C16.5191 15.4594 16.3555 15.5494 16.2277 15.5494C16.1636 15.5494 16.0836 15.5335 15.9877 15.5022C15.8919 15.4706 15.819 15.4435 15.769 15.4217C15.7194 15.3995 15.6343 15.3554 15.5134 15.2888C15.3922 15.2225 15.3249 15.1861 15.3107 15.1798C14.337 14.6995 13.5019 14.1497 12.8052 13.5307C12.1088 12.9114 11.4904 12.1691 10.9502 11.3034C10.9431 11.2907 10.9022 11.2307 10.8276 11.1233C10.7529 11.0159 10.7031 10.9401 10.6782 10.8958C10.6534 10.8516 10.6232 10.7868 10.5877 10.7015C10.5522 10.6163 10.5344 10.5452 10.5344 10.4883C10.5344 10.3746 10.6357 10.2292 10.8383 10.0523C11.0408 9.87545 11.2612 9.70795 11.4993 9.5501C11.7375 9.39225 11.9576 9.21844 12.1603 9.02896C12.3628 8.83938 12.4641 8.6815 12.4641 8.55515C12.4641 8.46675 12.4392 8.37662 12.3895 8.28504C12.3398 8.19325 12.2634 8.08125 12.1603 7.9485C12.0571 7.81581 11.9949 7.73691 11.9736 7.71151C11.8671 7.55366 11.757 7.38466 11.6432 7.20458C11.5293 7.02452 11.405 6.82382 11.2699 6.6027C11.1349 6.38168 11.0284 6.21102 10.9501 6.09099C10.7015 5.64878 10.5132 5.40858 10.3852 5.3708C10.3354 5.35185 10.2608 5.34229 10.1614 5.34229C9.96934 5.34229 9.71884 5.37382 9.40968 5.43709C9.10041 5.50026 8.85705 5.56652 8.67934 5.63614C8.32395 5.76875 7.94727 6.15416 7.5492 6.79222C7.18672 7.38603 7.00549 7.97376 7.00549 8.55499C7.00549 8.72545 7.01793 8.89129 7.0428 9.05256C7.06767 9.21366 7.11211 9.39534 7.17615 9.59757C7.24008 9.79973 7.29165 9.94991 7.33063 10.0477C7.36966 10.1456 7.44251 10.3209 7.54916 10.5737C7.65566 10.8265 7.71971 10.9812 7.74103 11.038C7.98977 11.6573 8.28474 12.2101 8.62586 12.6966C9.18712 13.5054 9.95305 14.3411 10.9232 15.2036C11.8934 16.0661 12.8334 16.7469 13.7432 17.246C14.2905 17.5493 14.9126 17.8114 15.609 18.0327C15.673 18.0516 15.8471 18.1084 16.1313 18.2034C16.4156 18.2981 16.6129 18.3629 16.723 18.3976C16.8331 18.4324 17.0021 18.4783 17.2293 18.5352C17.457 18.5922 17.6612 18.6317 17.8425 18.6539C18.0238 18.6758 18.2104 18.687 18.4022 18.687C19.056 18.687 19.7172 18.5258 20.3853 18.2036C21.1029 17.8499 21.5364 17.515 21.6856 17.1988C21.7641 17.041 21.8385 16.8246 21.9095 16.5497C21.9808 16.2749 22.0162 16.0522 22.0162 15.8816C22.0165 15.7928 22.0057 15.7266 21.9843 15.682Z" fill="white"/>
<path d="M27.5 12.5C27.5 19.0756 21.5106 24.5 14 24.5C6.48937 24.5 0.5 19.0756 0.5 12.5C0.5 5.92436 6.48937 0.5 14 0.5C21.5106 0.5 27.5 5.92436 27.5 12.5Z" stroke="#DADADA"/>
</svg>
