<svg width="21" height="21" viewBox="0 0 21 21" fill="none" xmlns="http://www.w3.org/2000/svg">
<path d="M9.0038 3.37756L1.59255 15.7501C1.43975 16.0147 1.35889 16.3147 1.35804 16.6203C1.35718 16.9258 1.43635 17.2263 1.58767 17.4918C1.73899 17.7572 1.95718 17.9785 2.22054 18.1334C2.4839 18.2884 2.78325 18.3717 3.0888 18.3751H17.9113C18.2168 18.3717 18.5162 18.2884 18.7796 18.1334C19.0429 17.9785 19.2611 17.7572 19.4124 17.4918C19.5637 17.2263 19.6429 16.9258 19.6421 16.6203C19.6412 16.3147 19.5604 16.0147 19.4075 15.7501L11.9963 3.37756C11.8403 3.1204 11.6207 2.90779 11.3586 2.76023C11.0965 2.61267 10.8008 2.53516 10.5 2.53516C10.1993 2.53516 9.90359 2.61267 9.6415 2.76023C9.37942 2.90779 9.15979 3.1204 9.0038 3.37756V3.37756Z" stroke="#D33232" stroke-linecap="round" stroke-linejoin="round"/>
<path d="M10.5 7.875V11.375" stroke="#D33232" stroke-linecap="round" stroke-linejoin="round"/>
<path d="M10.5 14.875H10.5088" stroke="#D33232" stroke-linecap="round" stroke-linejoin="round"/>
</svg>
